<svg width="30" height="28" viewBox="0 0 30 28" fill="none" xmlns="http://www.w3.org/2000/svg">
<path d="M19.4531 6.49997H11.4844V1.57809C11.4844 1.14591 11.2465 0.748816 10.8654 0.544909C10.4844 0.341003 10.0221 0.363327 9.66246 0.603034L0.521836 6.69678C0.19582 6.91411 0 7.28003 0 7.67184C0 8.06366 0.19582 8.42958 0.521836 8.6469L9.66246 14.7407C10.0226 14.9807 10.4849 15.0024 10.8654 14.7988C11.2465 14.5949 11.4844 14.1978 11.4844 13.7656V8.84372H19.4531C23.9763 8.84372 27.6562 12.5236 27.6562 17.0468C27.6562 21.57 23.9763 25.25 19.4531 25.25C18.8059 25.25 18.2812 25.7746 18.2812 26.4218C18.2812 27.0691 18.8059 27.5937 19.4531 27.5937C25.2687 27.5937 30 22.8624 30 17.0468C30 11.2313 25.2687 6.49997 19.4531 6.49997ZM9.14062 11.5759L3.28453 7.67184L9.14062 3.76774V11.5759Z" fill="white"/>
</svg>
