<svg width="138" height="138" viewBox="0 0 138 138" fill="none" xmlns="http://www.w3.org/2000/svg">
<path d="M102.127 35.2969C105.422 31.0965 105.997 25.8054 103.792 19.9958C102.218 15.8468 99.7516 12.8723 99.6475 12.7479C98.8395 11.781 97.3999 11.6525 96.433 12.4612C95.4661 13.2692 95.3383 14.7061 96.1436 15.673C96.2545 15.8076 104.074 25.418 98.5352 32.4799C90.5591 42.6503 99.0633 56.0635 99.4291 56.6294C99.8659 57.3049 100.6 57.6728 101.348 57.6728C101.773 57.6728 102.202 57.5544 102.585 57.307C103.642 56.6227 103.947 55.2102 103.262 54.1513C103.192 54.0431 96.1659 42.8964 102.127 35.2969Z" fill="#BFBCBC"/>
<path d="M117.445 35.2969C120.74 31.0965 121.315 25.8054 119.11 19.9958C117.535 15.8468 115.069 12.8723 114.965 12.7479C114.158 11.781 112.717 11.6525 111.75 12.4612C110.785 13.2685 110.656 14.7054 111.461 15.6723C111.541 15.769 119.403 25.4038 113.853 32.4799C105.876 42.6503 114.381 56.0635 114.747 56.6294C115.184 57.3049 115.917 57.6728 116.665 57.6728C117.09 57.6728 117.519 57.5544 117.903 57.307C118.961 56.6227 119.265 55.2102 118.58 54.1513C118.511 54.0431 111.484 42.8964 117.445 35.2969Z" fill="#BFBCBC"/>
<path d="M21.6186 36.3544C24.9136 32.154 25.489 26.863 23.284 21.0533C21.7085 16.9043 19.2432 13.9298 19.139 13.8054C18.331 12.8385 16.8921 12.71 15.9245 13.5187C14.9589 14.3261 14.8298 15.7629 15.6351 16.7299C15.7156 16.8265 23.5774 26.4613 18.0274 33.5375C10.0499 43.7078 18.5548 57.1203 18.9213 57.687C19.3581 58.3625 20.0911 58.7303 20.8396 58.7303C21.2643 58.7303 21.6936 58.612 22.0763 58.3645C23.1345 57.6802 23.4381 56.267 22.7532 55.2088C22.6835 55.1006 15.6568 43.9539 21.6186 36.3544Z" fill="#BFBCBC"/>
<path d="M36.9366 36.3544C40.2316 32.154 40.807 26.863 38.6027 21.0533C37.0279 16.9043 34.5619 13.9298 34.4577 13.8054C33.6497 12.8385 32.2108 12.71 31.2432 13.5187C30.2776 14.3261 30.1485 15.7629 30.9538 16.7299C31.0343 16.8265 38.8961 26.4613 33.3454 33.5375C25.3679 43.7078 33.8728 57.1203 34.2387 57.687C34.6755 58.3625 35.4084 58.7303 36.157 58.7303C36.5816 58.7303 37.011 58.612 37.3944 58.3645C38.4526 57.6802 38.7562 56.267 38.0712 55.2088C38.0016 55.1006 30.9748 43.9539 36.9366 36.3544Z" fill="#BFBCBC"/>
<path d="M130.424 108.062H125.583C124.447 79.5929 102.153 56.4759 74.0314 54.035V51.711C76.8869 50.0029 78.6598 46.9412 78.6598 43.5374C78.6598 38.2687 74.3722 33.9817 69.1035 33.9817C69.069 33.9817 68.9317 33.9817 68.8972 33.9817C63.6278 33.9817 59.3409 38.2687 59.3409 43.5374C59.3409 46.9412 61.1145 50.0036 63.9686 51.711V54.035C35.8479 56.4759 13.5532 79.5922 12.4166 108.062H7.57583C3.39844 108.062 0 111.46 0 115.637V118.49C0 122.671 3.39844 126.07 7.57516 126.07H130.425C134.602 126.07 138 122.671 138 118.49V115.637C137.999 111.46 134.601 108.062 130.424 108.062ZM63.9037 43.5374C63.9037 40.7854 66.1432 38.5459 68.8959 38.5459C68.931 38.5459 69.0676 38.5459 69.1021 38.5459C71.8548 38.5459 74.0943 40.7854 74.0943 43.5374C74.0943 45.595 72.8461 47.4152 70.9142 48.1732C70.0406 48.516 69.4666 49.3592 69.4666 50.2978V53.8213H68.5314V50.2978C68.5314 49.3592 67.9567 48.5167 67.0837 48.1732C65.1519 47.4146 63.9037 45.595 63.9037 43.5374ZM130.424 121.505H7.57448C5.9138 121.505 4.56349 120.152 4.56349 118.49V115.636C4.56349 113.976 5.91448 112.626 7.57448 112.626H11.3266C11.3475 112.627 11.3671 112.629 11.3881 112.629H93.3415C94.6012 112.629 95.6236 111.608 95.6236 110.347C95.6236 109.088 94.6012 108.065 93.3415 108.065H16.9868C18.1809 80.5369 40.8936 58.4957 68.6856 58.3848H69.3131C97.1058 58.4957 119.817 80.5362 121.012 108.065H108.102C106.842 108.065 105.82 109.088 105.82 110.347C105.82 111.608 106.842 112.629 108.102 112.629L125.725 112.626H130.423C132.084 112.626 133.434 113.976 133.434 115.636V118.49H133.435C133.435 120.152 132.084 121.505 130.424 121.505Z" fill="#BFBCBC"/>
</svg>
