<svg width="30" height="33" viewBox="0 0 30 33" fill="none" xmlns="http://www.w3.org/2000/svg">
<path d="M28.9398 6.8985L22.1979 0.276947C22.0171 0.0994492 21.7739 0 21.5203 0H4.47577C2.48679 0 0.868408 1.61813 0.868408 3.60736V29.3926C0.868408 31.3816 2.48653 33 4.47577 33H25.6217C27.6107 33 29.229 31.3819 29.229 29.3926V7.58835C29.229 7.32877 29.1248 7.08028 28.9398 6.8985ZM22.4871 3.2715L25.8981 6.62155H22.7946C22.6251 6.62155 22.4871 6.48358 22.4871 6.31414V3.2715ZM25.6217 31.0664H4.47577C3.55303 31.0664 2.802 30.3156 2.802 29.3926V3.60736C2.802 2.68437 3.55278 1.93359 4.47577 1.93359H20.5538V6.31414C20.5538 7.54983 21.5591 8.55515 22.7948 8.55515H27.2954V29.3926C27.2954 30.3156 26.5447 31.0664 25.6217 31.0664Z" fill="#414141"/>
<path d="M23.2124 15.3398H9.58362C9.04961 15.3398 8.61682 15.7726 8.61682 16.3066C8.61682 16.8406 9.04961 17.2734 9.58362 17.2734H23.2124C23.7464 17.2734 24.1792 16.8406 24.1792 16.3066C24.1792 15.7726 23.7464 15.3398 23.2124 15.3398Z" fill="#414141"/>
<path d="M9.58362 21.1406H20.6962C21.2302 21.1406 21.663 20.7078 21.663 20.1738C21.663 19.6398 21.2302 19.207 20.6962 19.207H9.58362C9.04961 19.207 8.61682 19.6398 8.61682 20.1738C8.61682 20.7078 9.04961 21.1406 9.58362 21.1406Z" fill="#414141"/>
<path d="M22.0369 23.0742H9.58362C9.04961 23.0742 8.61682 23.507 8.61682 24.041C8.61682 24.575 9.04961 25.0078 9.58362 25.0078H22.0369C22.5707 25.0078 23.0037 24.575 23.0037 24.041C23.0037 23.507 22.5707 23.0742 22.0369 23.0742Z" fill="#414141"/>
</svg>
